# xmcd
# 
# Track frame offsets:
#     182
#     17957
#     38660
#     58677
#     71745
#     91982
#     111625
#     125545
#     151670
#     171105
# 
# Disc length: 2523
# 
# Revision: 7
# Processed by: cddbd v1.5.2PL0 Copyright (c) Steve Scherf et al.
# Submitted via: BonkEnc v1.0
# 
DISCID=8409d90a
DTITLE=Sá and Guarabyra - 10 Anos Juntos
DYEAR=1989
DGENRE=MPB
TTITLE0=Caçador De Mim
TTITLE1=Espanhola
TTITLE2=Dona
TTITLE3=O Jeito De Viver
TTITLE4=Primeira Canção Da Estrada - O Pó Da Estrada
TTITLE5=Dança O Atrevido
TTITLE6=O Bando Na Dança
TTITLE7=Vem Queimando A Nave Louca
TTITLE8=Sete Marias
TTITLE9=Sobradinho
EXTD=
EXTT0=
EXTT1=
EXTT2=
EXTT3=
EXTT4=O P  da Estrada
EXTT5=
EXTT6=
EXTT7=
EXTT8=
EXTT9=
PLAYORDER=
